# Blender 3.5.1
# www.blender.org
mtllib Pizarra.mtl
o Cube
v 0.066822 1.736153 -2.541674
v 0.066822 -1.736153 -2.541674
v 0.066822 1.736153 2.541674
v 0.066822 -1.736153 2.541674
v -0.066822 1.736153 -2.541674
v -0.066822 -1.736153 -2.541674
v -0.066822 1.736153 2.541674
v -0.066822 -1.736153 2.541674
v 0.066822 1.613519 -2.362142
v 0.066822 -1.613519 -2.362142
v 0.066822 1.613519 2.362142
v 0.066822 -1.613519 2.362142
v -0.014311 1.613519 -2.362142
v -0.014311 -1.613519 -2.362142
v -0.014311 1.613519 2.362142
v -0.014311 -1.613519 2.362142
vn -0.0000 1.0000 -0.0000
vn -0.0000 -0.0000 1.0000
vn -1.0000 -0.0000 -0.0000
vn -0.0000 -1.0000 -0.0000
vn 1.0000 -0.0000 -0.0000
vn -0.0000 -0.0000 -1.0000
vt 0.625000 0.500000
vt 0.375000 0.500000
vt 0.625000 0.750000
vt 0.375000 0.750000
vt 0.875000 0.500000
vt 0.625000 0.250000
vt 0.125000 0.500000
vt 0.375000 0.250000
vt 0.875000 0.750000
vt 0.625000 1.000000
vt 0.625000 0.000000
vt 0.375000 1.000000
vt 0.375000 0.000000
vt 0.125000 0.750000
vt 0.625000 0.500000
vt 0.375000 0.500000
vt 0.625000 0.750000
vt 0.375000 0.750000
vt 0.625000 0.500000
vt 0.375000 0.500000
vt 0.625000 0.750000
vt 0.375000 0.750000
s 0
usemtl Material
f 1/1/1 5/5/1 7/9/1 3/3/1
f 4/4/2 3/3/2 7/10/2 8/12/2
f 8/13/3 7/11/3 5/6/3 6/8/3
f 6/7/4 2/2/4 4/4/4 8/14/4
f 3/3/5 4/4/5 12/18/5 11/17/5
f 6/8/6 5/6/6 1/1/6 2/2/6
f 12/18/1 10/16/1 14/20/1 16/22/1
f 2/2/5 1/1/5 9/15/5 10/16/5
f 4/4/5 2/2/5 10/16/5 12/18/5
f 1/1/5 3/3/5 11/17/5 9/15/5
f 14/20/5 13/19/5 15/21/5 16/22/5
f 11/17/6 12/18/6 16/22/6 15/21/6
f 9/15/4 11/17/4 15/21/4 13/19/4
f 10/16/2 9/15/2 13/19/2 14/20/2
